<mxfile host="localhost" agent="Mozilla/5.0 (X11; Linux x86_64) AppleWebKit/537.36 (KHTML, like Gecko) Chrome/130.0.0.0 Safari/537.36" version="24.7.5">
  <diagram name="Page-1" id="0QFjOGupgGm7Bwu-m2vd">
    <mxGraphModel dx="1157" dy="639" grid="1" gridSize="10" guides="1" tooltips="1" connect="1" arrows="1" fold="1" page="1" pageScale="1" pageWidth="850" pageHeight="1100" math="0" shadow="0">
      <root>
        <mxCell id="0" />
        <mxCell id="1" parent="0" />
        <mxCell id="-IDiZIC_hfYiUm_vGDHO-1" value="AWS Step Functions workflow" style="points=[[0,0],[0.25,0],[0.5,0],[0.75,0],[1,0],[1,0.25],[1,0.5],[1,0.75],[1,1],[0.75,1],[0.5,1],[0.25,1],[0,1],[0,0.75],[0,0.5],[0,0.25]];outlineConnect=0;gradientColor=none;html=1;whiteSpace=wrap;fontSize=12;fontStyle=0;container=1;pointerEvents=0;collapsible=0;recursiveResize=0;shape=mxgraph.aws4.group;grIcon=mxgraph.aws4.group_aws_step_functions_workflow;strokeColor=#CD2264;fillColor=none;verticalAlign=top;align=left;spacingLeft=30;fontColor=#CD2264;dashed=0;" parent="1" vertex="1">
          <mxGeometry x="610" y="66.5" width="370" height="410" as="geometry" />
        </mxCell>
        <mxCell id="-IDiZIC_hfYiUm_vGDHO-19" style="edgeStyle=orthogonalEdgeStyle;rounded=0;orthogonalLoop=1;jettySize=auto;html=1;" parent="-IDiZIC_hfYiUm_vGDHO-1" source="-IDiZIC_hfYiUm_vGDHO-5" target="-IDiZIC_hfYiUm_vGDHO-9" edge="1">
          <mxGeometry relative="1" as="geometry" />
        </mxCell>
        <mxCell id="-IDiZIC_hfYiUm_vGDHO-20" style="edgeStyle=orthogonalEdgeStyle;rounded=0;orthogonalLoop=1;jettySize=auto;html=1;" parent="-IDiZIC_hfYiUm_vGDHO-1" source="-IDiZIC_hfYiUm_vGDHO-5" target="-IDiZIC_hfYiUm_vGDHO-10" edge="1">
          <mxGeometry relative="1" as="geometry">
            <Array as="points">
              <mxPoint x="185" y="204" />
              <mxPoint x="144" y="204" />
            </Array>
          </mxGeometry>
        </mxCell>
        <mxCell id="-IDiZIC_hfYiUm_vGDHO-21" style="edgeStyle=orthogonalEdgeStyle;rounded=0;orthogonalLoop=1;jettySize=auto;html=1;" parent="-IDiZIC_hfYiUm_vGDHO-1" source="-IDiZIC_hfYiUm_vGDHO-5" target="-IDiZIC_hfYiUm_vGDHO-11" edge="1">
          <mxGeometry relative="1" as="geometry">
            <Array as="points">
              <mxPoint x="185" y="204" />
              <mxPoint x="239" y="204" />
            </Array>
          </mxGeometry>
        </mxCell>
        <mxCell id="-IDiZIC_hfYiUm_vGDHO-22" style="edgeStyle=orthogonalEdgeStyle;rounded=0;orthogonalLoop=1;jettySize=auto;html=1;" parent="-IDiZIC_hfYiUm_vGDHO-1" source="-IDiZIC_hfYiUm_vGDHO-5" target="-IDiZIC_hfYiUm_vGDHO-12" edge="1">
          <mxGeometry relative="1" as="geometry" />
        </mxCell>
        <mxCell id="-IDiZIC_hfYiUm_vGDHO-5" value="File&amp;nbsp; Type Detector" style="sketch=0;outlineConnect=0;fontColor=#232F3E;gradientColor=none;fillColor=#ED7100;strokeColor=none;dashed=0;verticalLabelPosition=top;verticalAlign=bottom;align=center;html=1;fontSize=12;fontStyle=0;aspect=fixed;pointerEvents=1;shape=mxgraph.aws4.lambda_function;labelPosition=center;" parent="-IDiZIC_hfYiUm_vGDHO-1" vertex="1">
          <mxGeometry x="161" y="73.5" width="48" height="48" as="geometry" />
        </mxCell>
        <mxCell id="-IDiZIC_hfYiUm_vGDHO-9" value="XML &lt;br&gt;Processor" style="sketch=0;outlineConnect=0;fontColor=#232F3E;gradientColor=none;fillColor=#ED7100;strokeColor=none;dashed=0;verticalLabelPosition=bottom;verticalAlign=top;align=center;html=1;fontSize=12;fontStyle=0;aspect=fixed;pointerEvents=1;shape=mxgraph.aws4.lambda_function;" parent="-IDiZIC_hfYiUm_vGDHO-1" vertex="1">
          <mxGeometry x="35" y="233.5" width="48" height="48" as="geometry" />
        </mxCell>
        <mxCell id="-IDiZIC_hfYiUm_vGDHO-12" value="YAML &lt;br&gt;Processor" style="sketch=0;outlineConnect=0;fontColor=#232F3E;gradientColor=none;fillColor=#ED7100;strokeColor=none;dashed=0;verticalLabelPosition=bottom;verticalAlign=top;align=center;html=1;fontSize=12;fontStyle=0;aspect=fixed;pointerEvents=1;shape=mxgraph.aws4.lambda_function;" parent="-IDiZIC_hfYiUm_vGDHO-1" vertex="1">
          <mxGeometry x="300" y="233.5" width="48" height="48" as="geometry" />
        </mxCell>
        <mxCell id="-IDiZIC_hfYiUm_vGDHO-11" value="JSON &lt;br&gt;Processor" style="sketch=0;outlineConnect=0;fontColor=#232F3E;gradientColor=none;fillColor=#ED7100;strokeColor=none;dashed=0;verticalLabelPosition=bottom;verticalAlign=top;align=center;html=1;fontSize=12;fontStyle=0;aspect=fixed;pointerEvents=1;shape=mxgraph.aws4.lambda_function;" parent="-IDiZIC_hfYiUm_vGDHO-1" vertex="1">
          <mxGeometry x="215" y="233.5" width="48" height="48" as="geometry" />
        </mxCell>
        <mxCell id="-IDiZIC_hfYiUm_vGDHO-10" value="CSV&lt;br&gt;Processor" style="sketch=0;outlineConnect=0;fontColor=#232F3E;gradientColor=none;fillColor=#ED7100;strokeColor=none;dashed=0;verticalLabelPosition=bottom;verticalAlign=top;align=center;html=1;fontSize=12;fontStyle=0;aspect=fixed;pointerEvents=1;shape=mxgraph.aws4.lambda_function;" parent="-IDiZIC_hfYiUm_vGDHO-1" vertex="1">
          <mxGeometry x="120" y="233.5" width="48" height="48" as="geometry" />
        </mxCell>
        <mxCell id="-IDiZIC_hfYiUm_vGDHO-4" value="New File Upload" style="edgeStyle=orthogonalEdgeStyle;rounded=0;orthogonalLoop=1;jettySize=auto;html=1;" parent="1" source="-IDiZIC_hfYiUm_vGDHO-2" target="-IDiZIC_hfYiUm_vGDHO-3" edge="1">
          <mxGeometry relative="1" as="geometry" />
        </mxCell>
        <mxCell id="-IDiZIC_hfYiUm_vGDHO-2" value="Authenticated User &lt;br&gt;(Or some other &lt;br&gt;authorized resource)" style="outlineConnect=0;dashed=0;verticalLabelPosition=bottom;verticalAlign=top;align=center;html=1;shape=mxgraph.aws3.user;fillColor=#D2D3D3;gradientColor=none;" parent="1" vertex="1">
          <mxGeometry x="50" y="240" width="45" height="63" as="geometry" />
        </mxCell>
        <mxCell id="-IDiZIC_hfYiUm_vGDHO-6" value="Object Created&lt;br&gt;Notification" style="edgeStyle=orthogonalEdgeStyle;rounded=0;orthogonalLoop=1;jettySize=auto;html=1;" parent="1" source="-IDiZIC_hfYiUm_vGDHO-3" target="g5dgDeoHoOepsOKBrSsE-1" edge="1">
          <mxGeometry relative="1" as="geometry" />
        </mxCell>
        <mxCell id="-IDiZIC_hfYiUm_vGDHO-3" value="S3 Bucket" style="sketch=0;outlineConnect=0;fontColor=#232F3E;gradientColor=none;fillColor=#7AA116;strokeColor=none;dashed=0;verticalLabelPosition=bottom;verticalAlign=top;align=center;html=1;fontSize=12;fontStyle=0;aspect=fixed;pointerEvents=1;shape=mxgraph.aws4.bucket;" parent="1" vertex="1">
          <mxGeometry x="220" y="232.5" width="75" height="78" as="geometry" />
        </mxCell>
        <mxCell id="-IDiZIC_hfYiUm_vGDHO-13" value="DynamoDB Table" style="sketch=0;points=[[0,0,0],[0.25,0,0],[0.5,0,0],[0.75,0,0],[1,0,0],[0,1,0],[0.25,1,0],[0.5,1,0],[0.75,1,0],[1,1,0],[0,0.25,0],[0,0.5,0],[0,0.75,0],[1,0.25,0],[1,0.5,0],[1,0.75,0]];outlineConnect=0;fontColor=#232F3E;fillColor=#C925D1;strokeColor=#ffffff;dashed=0;verticalLabelPosition=bottom;verticalAlign=top;align=center;html=1;fontSize=12;fontStyle=0;aspect=fixed;shape=mxgraph.aws4.resourceIcon;resIcon=mxgraph.aws4.dynamodb;" parent="1" vertex="1">
          <mxGeometry x="756" y="520" width="78" height="78" as="geometry" />
        </mxCell>
        <mxCell id="-IDiZIC_hfYiUm_vGDHO-15" style="edgeStyle=orthogonalEdgeStyle;rounded=0;orthogonalLoop=1;jettySize=auto;html=1;entryX=0.5;entryY=0;entryDx=0;entryDy=0;entryPerimeter=0;" parent="1" source="-IDiZIC_hfYiUm_vGDHO-9" target="-IDiZIC_hfYiUm_vGDHO-13" edge="1">
          <mxGeometry relative="1" as="geometry">
            <Array as="points">
              <mxPoint x="710" y="324" />
              <mxPoint x="710" y="440" />
              <mxPoint x="795" y="440" />
            </Array>
          </mxGeometry>
        </mxCell>
        <mxCell id="-IDiZIC_hfYiUm_vGDHO-16" style="edgeStyle=orthogonalEdgeStyle;rounded=0;orthogonalLoop=1;jettySize=auto;html=1;entryX=0.5;entryY=0;entryDx=0;entryDy=0;entryPerimeter=0;" parent="1" source="-IDiZIC_hfYiUm_vGDHO-10" target="-IDiZIC_hfYiUm_vGDHO-13" edge="1">
          <mxGeometry relative="1" as="geometry">
            <Array as="points">
              <mxPoint x="710" y="324" />
              <mxPoint x="710" y="440" />
              <mxPoint x="795" y="440" />
            </Array>
          </mxGeometry>
        </mxCell>
        <mxCell id="-IDiZIC_hfYiUm_vGDHO-17" style="edgeStyle=orthogonalEdgeStyle;rounded=0;orthogonalLoop=1;jettySize=auto;html=1;entryX=0.5;entryY=0;entryDx=0;entryDy=0;entryPerimeter=0;" parent="1" source="-IDiZIC_hfYiUm_vGDHO-11" target="-IDiZIC_hfYiUm_vGDHO-13" edge="1">
          <mxGeometry relative="1" as="geometry">
            <mxPoint x="800" y="520" as="targetPoint" />
            <Array as="points">
              <mxPoint x="890" y="324" />
              <mxPoint x="890" y="440" />
              <mxPoint x="795" y="440" />
            </Array>
          </mxGeometry>
        </mxCell>
        <mxCell id="-IDiZIC_hfYiUm_vGDHO-18" style="edgeStyle=orthogonalEdgeStyle;rounded=0;orthogonalLoop=1;jettySize=auto;html=1;entryX=0.5;entryY=0;entryDx=0;entryDy=0;entryPerimeter=0;" parent="1" source="-IDiZIC_hfYiUm_vGDHO-12" target="-IDiZIC_hfYiUm_vGDHO-13" edge="1">
          <mxGeometry relative="1" as="geometry">
            <Array as="points">
              <mxPoint x="890" y="324" />
              <mxPoint x="890" y="440" />
              <mxPoint x="795" y="440" />
            </Array>
          </mxGeometry>
        </mxCell>
        <mxCell id="g5dgDeoHoOepsOKBrSsE-2" style="edgeStyle=orthogonalEdgeStyle;rounded=0;orthogonalLoop=1;jettySize=auto;html=1;entryX=0;entryY=0.5;entryDx=0;entryDy=0;" parent="1" source="g5dgDeoHoOepsOKBrSsE-1" target="-IDiZIC_hfYiUm_vGDHO-1" edge="1">
          <mxGeometry relative="1" as="geometry" />
        </mxCell>
        <mxCell id="g5dgDeoHoOepsOKBrSsE-1" value="State Machine&lt;br&gt;Invoker" style="sketch=0;outlineConnect=0;fontColor=#232F3E;gradientColor=none;fillColor=#ED7100;strokeColor=none;dashed=0;verticalLabelPosition=bottom;verticalAlign=top;align=center;html=1;fontSize=12;fontStyle=0;aspect=fixed;pointerEvents=1;shape=mxgraph.aws4.lambda_function;" parent="1" vertex="1">
          <mxGeometry x="470" y="247.5" width="48" height="48" as="geometry" />
        </mxCell>
      </root>
    </mxGraphModel>
  </diagram>
</mxfile>
